<?xml version="1.0" standalone="no"?><!DOCTYPE svg PUBLIC "-//W3C//DTD SVG 1.1//EN" "http://www.w3.org/Graphics/SVG/1.1/DTD/svg11.dtd"><svg t="1644574367711" class="icon" viewBox="0 0 1024 1024" version="1.1" xmlns="http://www.w3.org/2000/svg" p-id="1471" xmlns:xlink="http://www.w3.org/1999/xlink" width="200" height="200"><defs><style type="text/css"></style></defs><path d="M455.7 720.3V475c0-20.8-16.9-37.7-37.7-37.7H172.7v56.6h169.8c10.4 0 18.9 8.4 18.9 18.9 0 10.4-8.4 18.9-18.9 18.9H172.7v56.6h169.8c10.4 0 18.9 8.4 18.9 18.9 0 10.4-8.4 18.9-18.9 18.9H172.7v132H418c20.8-0.1 37.7-17 37.7-37.8z m320.7-433.9h-75.5v-56.6h56.6v-94.3c0-20.8-16.9-37.7-37.7-37.7h-415c-20.8 0-37.7 16.9-37.7 37.7v94.3h56.6v56.6h-75.5c-41.7 0-75.5 33.8-75.5 75.5v37.7h283c20.8 0 37.7 16.9 37.7 37.7V758c0 20.8-16.9 37.7-37.7 37.7h-283v56.6c0 41.7 33.8 75.5 75.5 75.5h528.2c41.7 0 75.5-33.8 75.5-75.5V361.8c-0.1-41.6-33.9-75.4-75.5-75.4z" p-id="1472"></path></svg>