<?xml version="1.0" standalone="no"?><!DOCTYPE svg PUBLIC "-//W3C//DTD SVG 1.1//EN" "http://www.w3.org/Graphics/SVG/1.1/DTD/svg11.dtd"><svg t="1646576011451" class="icon" viewBox="0 0 1024 1024" version="1.1" xmlns="http://www.w3.org/2000/svg" p-id="13180" xmlns:xlink="http://www.w3.org/1999/xlink" width="200" height="200"><defs><style type="text/css"></style></defs><path d="M997.28896 409.46688c0-55.53664-21.64736-107.75552-60.93824-147.01568-81.08544-81.08544-212.91008-81.06496-295.92064 2.01728l-9.27232 10.78784c-2.24256-2.54976-4.38272-5.19168-7.37792-7.1168-2.03264-1.30048-2.95936-2.42688-2.9952-2.47808V256.1024h6.52288c34.16064 0 61.97248-27.79648 61.97248-61.97248v-76.8c0-34.176-27.81184-61.97248-61.97248-61.97248H144.09728c-34.176 0-61.97248 27.79648-61.97248 61.97248v76.80512c0 33.50016 26.76224 60.70784 60.032 61.77792l0.01536 9.50272c-0.15872 0.30208-1.07008 1.42848-3.06688 2.67264C73.33888 309.80608 33.39776 338.06336 33.39776 378.58816v515.09248c0 47.3856 38.56384 85.92896 85.96992 85.92896h358.35904c0.12288 0 0.24576 0.04096 0.37376 0.04096 0.21504 0 0.43008-0.04096 0.62464-0.04096h304.76288c63.18592 0 114.60096-51.41504 114.60096-114.60096s-51.41504-114.60608-114.60096-114.60608h-8.448l161.31072-193.90464c39.296-39.25504 60.93824-91.47392 60.93824-147.03104zM155.15136 128.384h461.10208v54.69696H155.15136V128.384z m-48.72192 765.29664V382.42304c9.60512-13.23008 56.0896-42.7008 71.84896-52.70016 23.39328-14.88384 36.80256-38.24128 36.80256-64.05632v-9.55904h332.68736v9.55904c0 25.76384 13.36832 49.08032 36.68992 63.96928L479.58016 451.70688c-0.74752 0.5888-1.67424 0.768-2.38592 1.408-3.42528 3.06688-5.9392 6.73792-7.91552 10.58816l-138.27584 160.97792c-39.27552 39.2192-60.90752 91.42272-60.90752 146.97984 0 50.24256 18.48832 97.23392 50.93888 134.92736H119.36768a12.93824 12.93824 0 0 1-12.93824-12.90752z m573.61408-143.27808h-77.66016c-63.18592 0-114.5856 51.42016-114.5856 114.60608 0 14.22336 2.944 27.74016 7.70048 40.33024-40.73984 5.30944-82.65728-8.09472-112.87552-38.26688-25.47712-25.49248-39.50592-59.3664-39.50592-95.41632 0-36.01408 14.0288-69.888 41.37984-97.3824l118.3488-137.74336 184.04864 205.6704-6.85056 8.20224z m-77.66016 156.18048c-22.93248 0-41.53856-18.65216-41.53856-41.5744 0-22.93248 18.6112-41.5744 41.53856-41.5744h54.05696v83.1488h-54.05696z m222.68416-41.5744c0 22.92736-18.65216 41.5744-41.5744 41.5744h-54.02112v-83.1488h54.02112c22.92224 0 41.5744 18.64704 41.5744 41.5744z m57.40544-357.69856l-148.33664 178.16064-183.27552-204.81536 143.09376-166.57408c52.62848-52.59264 138.20416-52.61312 190.76608 0.01536 25.49248 25.46176 39.54688 59.33568 39.54688 95.36512 0 36.03968-14.0544 69.9136-41.79456 97.84832z" fill="#47a0fe" p-id="13181"></path><path d="M271.37536 553.9328H325.632a36.51072 36.51072 0 1 0 0-73.02656H271.37536V426.61888a36.51072 36.51072 0 0 0-73.02656 0v54.28736H144.09728a36.51072 36.51072 0 0 0 0 73.02656H198.3488v54.272a36.5056 36.5056 0 0 0 36.51584 36.51584 36.5056 36.5056 0 0 0 36.51072-36.51584v-54.272z" fill="#47a0fe" p-id="13182"></path></svg>