<?xml version="1.0" standalone="no"?><!DOCTYPE svg PUBLIC "-//W3C//DTD SVG 1.1//EN" "http://www.w3.org/Graphics/SVG/1.1/DTD/svg11.dtd"><svg t="1644635945965" class="icon" viewBox="0 0 1024 1024" version="1.1" xmlns="http://www.w3.org/2000/svg" p-id="20942" xmlns:xlink="http://www.w3.org/1999/xlink" width="200" height="200"><defs><style type="text/css"></style></defs><path d="M701.197454 1019.986274c-6.999906-3.799949-14.199809-7.199903-21.099716-11.299848-23.499684-13.799814-44.799397-31.099581-63.19915-51.29931-22.399699-24.299673-39.999462-52.599292-51.9993-83.398877-11.499845-28.399618-17.399766-58.69921-17.499764-89.298799 0-14.899799 1.699977-29.899598 3.399954-44.799397 2.899961-22.2997 9.099878-43.999408 18.499751-64.499132 13.999812-31.899571 32.69956-60.19919 57.799222-83.398877 9.499872-8.699883 19.199742-17.09977 29.399604-24.999664 16.699775-12.999825 35.299525-23.199688 55.199258-30.299592 19.099743-6.799908 38.699479-11.89984 58.69921-15.199796 16.299781-2.599965 33.299552-1.999973 49.79933-1.49998 12.999825 0.399995 25.99965 2.699964 39.699465 4.199944v-5.499926c0-127.79828 0-255.696559-0.099998-383.494839 0-9.799868-0.799989-19.699735-2.399968-29.399605-3.999946-25.399658-16.899773-48.499347-36.39951-65.199122-31.19958-27.199634-68.599077-39.099474-108.49854-39.299471C539.299633 0.699991 366.001965 1.099985 192.704297 0.999987c-22.799693 0-45.199392 1.999973-67.299095 8.599884-29.899598 8.89988-55.799249 24.299673-74.898992 50.599319-13.899813 18.699748-21.399712 41.299444-21.49971 64.599131 0 257.09654 0 514.19308 0.099998 771.28962 0 5.499926 0.399995 11.099851 1.199984 16.599777 3.599952 29.999596 19.099743 57.299229 42.899423 75.79898 30.899584 24.599669 66.8991 34.999529 104.698591 35.099528 174.097657 0.699991 348.095316 0.299996 522.192973 0.299996h5.599924c-0.999987-1.699977-2.599965-2.99996-4.499939-3.899948zM176.704512 325.095625c1.699977-22.799693 19.29974-40.799451 40.89945-40.799451 78.898938-0.099999 157.697878 0 236.596816 0h235.996824c29.099608 0 49.299337 32.999556 38.099487 61.199177-7.499899 18.999744-21.799707 28.499616-40.899449 28.499616-155.597906 0.099999-311.095814 0.099999-466.69372 0.099999-26.099649 0-46.09938-21.799707-43.999408-48.999341z m2.299969 185.597503c5.399927-16.499778 16.799774-26.499643 33.299552-29.399605 4.199943-0.799989 8.399887-1.199984 12.699829-1.199984 59.199203-0.099999 118.398407 0 177.497612 0 60.699183 0 121.498365-0.199997 182.297546 0.099999 21.799707-0.399995 40.499455 15.59979 43.399416 37.199499 4.399941 27.799626-12.099837 48.899342-36.299511 52.399295-8.499886 1.099985-17.09977 1.49998-25.699654 1.299983-113.998466 0.099999-228.09693 0.099999-342.095397 0-13.199822 0-25.899651-3.399954-35.399523-13.899813-11.699843-12.499832-15.499791-30.399591-9.69987-46.499374z m352.195261 217.797069c-5.19993 18.899746-22.2997 31.999569-41.899437 32.199566-44.799397 0.099999-89.698793 0-134.49819 0H220.903917c-26.899638 0-45.699385-22.399699-44.299404-47.999354 1.299983-22.799693 17.499765-40.799451 38.399484-41.499441 36.699506-1.299983 73.399012-1.299983 110.098518-1.399981 53.099285-0.199997 106.198571-0.199997 159.297856 0 10.499859 0 20.79972 1.999973 29.899598 8.099891 15.499791 10.599857 22.199701 31.599575 16.899773 50.599319z" p-id="20943"></path><path d="M1004.893367 735.990096a201.697286 201.697286 0 0 0-44.799397-95.998708c-22.799693-27.599629-50.199324-48.999341-82.898884-61.999166-30.699587-12.299834-62.299162-18.199755-95.398717-14.999798-21.299713 1.899974-42.199432 6.899907-61.999165 14.799801-23.79968 9.699869-45.599386 23.699681-64.199136 41.399443-21.999704 20.79972-39.499468 45.899382-51.199311 73.799006-9.499872 21.999704-15.199795 45.499388-16.799774 69.399066-1.199984 19.199742-0.399995 38.399483 3.299955 57.499227 6.899907 36.999502 23.399685 71.599036 47.699358 100.29865 21.299713 25.399658 48.29935 45.399389 78.698941 58.399214 24.399672 10.499859 50.699318 16.199782 77.198961 16.799774 7.199903 0.199997 14.499805-0.399995 21.699708-1.299982 10.39986-1.299983 20.79972-2.399968 30.999583-4.799936 28.199621-6.69991 54.699264-19.499738 77.498957-37.499495 25.599656-19.699735 46.499374-44.799397 61.199177-73.59901 15.59979-30.899584 24.199674-63.89914 24.399671-99.59866-1.899974-14.199809-2.99996-28.499616-5.399927-42.599426zM798.496145 927.38752c-16.899773 0-30.699587-13.299821-30.699587-29.6996s13.799814-29.6996 30.699587-29.699601c16.999771 0 30.699587 13.299821 30.699586 29.699601-0.099999 16.399779-13.799814 29.6996-30.699586 29.6996z m30.599588-110.798509c0 16.399779-13.699816 30.899584-30.699587 30.899584-16.899773 0-30.699587-14.499805-30.699587-30.899584V660.091117c0-16.399779 13.799814-29.6996 30.699587-29.6996 16.999771 0 30.699587 13.299821 30.699587 29.6996v156.497894z" p-id="20944"></path></svg>