<?xml version="1.0" standalone="no"?><!DOCTYPE svg PUBLIC "-//W3C//DTD SVG 1.1//EN" "http://www.w3.org/Graphics/SVG/1.1/DTD/svg11.dtd"><svg t="1642563459491" class="icon" viewBox="0 0 1024 1024" version="1.1" xmlns="http://www.w3.org/2000/svg" p-id="8742" xmlns:xlink="http://www.w3.org/1999/xlink" width="200" height="200"><defs><style type="text/css"></style></defs><path d="M855.900467 106.075921 696.578856 106.075921c-6.811126-40.259936-43.531446-71.108524-87.676875-71.108524L415.464363 34.967396c-44.145429 0-80.866772 30.848589-87.676875 71.108524L168.465876 106.075921c-33.075303 0-59.983139 26.907836-59.983139 59.983139l0 749.378385c0 33.07428 26.907836 59.983139 59.983139 59.983139l687.435615 0c33.07428 0 59.983139-26.90886 59.983139-59.983139L915.88463 166.05906C915.88463 132.983757 888.97577 106.075921 855.900467 106.075921zM372.698351 119.589702c0-21.269419 19.184945-38.573527 42.766013-38.573527l193.436594 0c23.581068 0 42.766013 17.304108 42.766013 38.573527l0 17.254989c0 21.269419-19.184945 38.573527-42.766013 38.573527L415.464363 175.418218c-23.581068 0-42.766013-17.304108-42.766013-38.573527L372.698351 119.589702zM766.584256 374.526999c-0.010233 0-0.020466 0-0.029676 0-135.852084-0.202615-490.000963-0.604774-507.273349-0.056282-0.511653 0.040932-1.019213 0.060375-1.52575 0.060375-11.022031 0-20.762883-9.517771-22.671349-22.980387-2.130524-15.028275 6.305613-29.280884 18.842137-31.834033 2.90619-0.591471 4.232394-0.861624 259.657808-0.672312 125.295658 0.093121 251.766071 0.280386 253.029854 0.282433 12.715603 0.019443 23.011086 12.391215 22.995737 27.634384C789.592272 362.192066 779.285532 374.526999 766.584256 374.526999zM766.584256 600.154759c-0.010233 0-0.020466 0-0.029676 0-135.852084-0.202615-490.000963-0.604774-507.273349-0.056282-0.511653 0.040932-1.019213 0.060375-1.52575 0.060375-11.022031 0-20.762883-9.517771-22.671349-22.980387-2.130524-15.028275 6.305613-29.280884 18.842137-31.834033 2.90619-0.591471 4.232394-0.861624 259.657808-0.672312 125.295658 0.093121 251.766071 0.280386 253.029854 0.282433 12.715603 0.019443 23.011086 12.391215 22.995737 27.634384C789.592272 587.819826 779.285532 600.154759 766.584256 600.154759zM766.584256 808.489668c-0.010233 0-0.020466 0-0.029676 0-135.852084-0.202615-490.000963-0.604774-507.273349-0.056282-0.511653 0.040932-1.019213 0.060375-1.52575 0.060375-11.022031 0-20.762883-9.517771-22.671349-22.980387-2.130524-15.028275 6.305613-29.280884 18.842137-31.834033 2.90619-0.591471 4.232394-0.861624 259.657808-0.672312 125.295658 0.093121 251.766071 0.280386 253.029854 0.282433 12.715603 0.019443 23.011086 12.391215 22.995737 27.634384C789.592272 796.154735 779.285532 808.489668 766.584256 808.489668z" p-id="8743"></path></svg>