<?xml version="1.0" standalone="no"?><!DOCTYPE svg PUBLIC "-//W3C//DTD SVG 1.1//EN" "http://www.w3.org/Graphics/SVG/1.1/DTD/svg11.dtd"><svg t="1642561636802" class="icon" viewBox="0 0 1024 1024" version="1.1" xmlns="http://www.w3.org/2000/svg" p-id="7754" xmlns:xlink="http://www.w3.org/1999/xlink" width="200" height="200"><defs><style type="text/css"></style></defs><path d="M765.952 1006.592h-512c-126.976 0-230.4-103.424-230.4-230.4v-512c0-126.976 103.424-230.4 230.4-230.4h513.024c126.976 0 230.4 103.424 230.4 230.4v513.024c-1.024 125.952-104.448 229.376-231.424 229.376z m-512-881.664c-75.776 0-138.24 62.464-138.24 138.24v513.024c0 75.776 62.464 138.24 138.24 138.24h513.024c75.776 0 138.24-62.464 138.24-138.24v-512c0-75.776-62.464-138.24-138.24-138.24H253.952z" fill="#009F72" p-id="7755"></path><path d="M509.952 549.888c-78.848 0-142.336-64.512-142.336-142.336 0-78.848 64.512-142.336 142.336-142.336 78.848 0 142.336 64.512 142.336 142.336 0 77.824-64.512 142.336-142.336 142.336z" fill="#EFD152" p-id="7756"></path><path d="M645.12 948.224H388.096c-52.224 0-94.208-41.984-94.208-94.208V683.008c0-52.224 41.984-94.208 94.208-94.208H645.12c52.224 0 94.208 41.984 94.208 94.208v171.008c0 52.224-41.984 94.208-94.208 94.208z" fill="#009F72" p-id="7757"></path></svg>