<?xml version="1.0" standalone="no"?><!DOCTYPE svg PUBLIC "-//W3C//DTD SVG 1.1//EN" "http://www.w3.org/Graphics/SVG/1.1/DTD/svg11.dtd"><svg t="1645005952054" class="icon" viewBox="0 0 1024 1024" version="1.1" xmlns="http://www.w3.org/2000/svg" p-id="3427" xmlns:xlink="http://www.w3.org/1999/xlink" width="200" height="200"><defs><style type="text/css"></style></defs><path d="M824.888889 0H455.111111C375.466667 0 312.888889 62.577778 312.888889 136.533333V284.444444L56.888889 517.688889v494.933333h56.888889V540.444444l204.8-182.044444v256l-108.088889 96.711111 28.444444 34.133333L455.111111 563.2c17.066667-17.066667 39.822222-22.755556 62.577778-22.755556 28.444444 0 56.888889 11.377778 73.955555 34.133334 34.133333 39.822222 28.444444 102.4-11.377777 130.844444l-364.088889 301.511111h79.644444l79.644445-68.266666c22.755556 22.755556 51.2 28.444444 79.644444 28.444444h375.466667c73.955556 0 136.533333-62.577778 136.533333-136.533333V136.533333C967.111111 62.577778 904.533333 0 824.888889 0z" fill="#2674FD" p-id="3428"></path><path d="M694.044444 915.911111H455.111111c-11.377778 0-28.444444-5.688889-39.822222-11.377778l28.444444-22.755555L608.711111 739.555556c28.444444-28.444444 45.511111-62.577778 51.2-102.4 0-39.822222-11.377778-73.955556-34.133333-108.088889-34.133333-28.444444-68.266667-45.511111-108.088889-45.511111-34.133333 0-68.266667 11.377778-96.711111 34.133333l-28.444445 28.444444-22.755555 22.755556V136.533333C369.777778 91.022222 409.6 56.888889 455.111111 56.888889h375.466667c39.822222 0 79.644444 34.133333 79.644444 79.644444v694.044445c0 45.511111-39.822222 85.333333-85.333333 85.333333h-130.844445z" fill="#FFFFFF" p-id="3429"></path><path d="M711.111111 489.244444c-28.444444 0-51.2-5.688889-62.577778-17.066666-22.755556-11.377778-45.511111-34.133333-45.511111-85.333334 0-28.444444-11.377778-34.133333-11.377778-34.133333-17.066667-5.688889-68.266667-17.066667-233.244444 62.577778-17.066667 5.688889-34.133333 0-39.822222-11.377778s0-28.444444 11.377778-39.822222c142.222222-73.955556 238.933333-91.022222 284.444444-56.888889 17.066667 11.377778 39.822222 34.133333 39.822222 85.333333 0 28.444444 11.377778 34.133333 11.377778 34.133334 17.066667 11.377778 68.266667 22.755556 250.311111-62.577778 11.377778-5.688889 28.444444 0 39.822222 11.377778 5.688889 17.066667 0 28.444444-11.377777 39.822222-102.4 51.2-182.044444 73.955556-233.244445 73.955555z" fill="#2674FD" p-id="3430"></path></svg>