<?xml version="1.0" standalone="no"?><!DOCTYPE svg PUBLIC "-//W3C//DTD SVG 1.1//EN" "http://www.w3.org/Graphics/SVG/1.1/DTD/svg11.dtd"><svg t="1642510465429" class="icon" viewBox="0 0 1024 1024" version="1.1" xmlns="http://www.w3.org/2000/svg" p-id="8268" xmlns:xlink="http://www.w3.org/1999/xlink" width="200" height="200"><defs><style type="text/css"></style></defs><path d="M0 0m125.582536 0l772.834928 0q125.582536 0 125.582536 125.582536l0 772.834928q0 125.582536-125.582536 125.582536l-772.834928 0q-125.582536 0-125.582536-125.582536l0-772.834928q0-125.582536 125.582536-125.582536Z" fill="#0099CC" p-id="8269"></path><path d="M626.531273 350.249693m6.781457 0l199.927398 0q6.781457 0 6.781456 6.781457l0 133.996566q0 6.781457-6.781456 6.781457l-199.927398 0q-6.781457 0-6.781457-6.781457l0-133.996566q0-6.781457 6.781457-6.781457Z" fill="#FEF139" p-id="8270"></path><path d="M691.457444 350.249693h83.763552v48.600442h-83.763552z" fill="#E9AB33" p-id="8271"></path><path d="M516.395389 513.50699m6.781457 0l310.188864 0q6.781457 0 6.781457 6.781457l0 244.383616q0 6.781457-6.781457 6.781457l-310.188864 0q-6.781457 0-6.781457-6.781457l0-244.383616q0-6.781457 6.781457-6.781457Z" fill="#FEF139" p-id="8272"></path><path d="M614.726515 513.381408v119.303409h13.814079l47.219033-58.395879 55.005151 58.395879h10.925681v-119.303409H614.726515z" fill="#E9AB33" p-id="8273"></path><path d="M190.885455 560.600442m8.91636 0l288.588668 0q8.91636 0 8.91636 8.91636l0 193.020358q0 8.91636-8.91636 8.91636l-288.588668 0q-8.91636 0-8.91636-8.91636l0-193.020358q0-8.91636 8.91636-8.91636Z" fill="#FEF139" p-id="8274"></path><path d="M280.676968 560.474859v93.558989h13.814079l47.219034-45.837625 55.005151 45.837625h10.92568v-93.558989H280.676968zM190.885455 789.035075h649.136129v97.57763H190.885455z" fill="#E9AB33" p-id="8275"></path><path d="M239.360314 820.179544h243.378955v33.028207H239.360314zM547.037528 820.179544h243.378955v33.028207H547.037528z" p-id="8276"></path><path d="M492.409124 362.807947L330.156488 524.558254 183.978416 363.059112h114.280107V141.531518a4.269806 4.269806 0 0 1 4.269807-4.269806h56.386558a4.269806 4.269806 0 0 1 4.269807 4.269806V362.93353z" fill="#FFFFFF" p-id="8277"></path></svg>