<?xml version="1.0" standalone="no"?><!DOCTYPE svg PUBLIC "-//W3C//DTD SVG 1.1//EN" "http://www.w3.org/Graphics/SVG/1.1/DTD/svg11.dtd"><svg t="1644635693673" class="icon" viewBox="0 0 1097 1024" version="1.1" xmlns="http://www.w3.org/2000/svg" p-id="12464" xmlns:xlink="http://www.w3.org/1999/xlink" width="214.2578125" height="200"><defs><style type="text/css"></style></defs><path d="M512 585.143H292.571a36.571 36.571 0 0 1 0-73.143H475.43V256a36.571 36.571 0 0 1 73.142 0v292.571A36.571 36.571 0 0 1 512 585.143zM946.834 413.33a36.571 36.571 0 0 1-72.52 9.472c-25.967-199.021-196.28-349.66-398.885-349.66-222.172 0-402.286 180.115-402.286 402.287 0 171.995 108.91 323.254 268.47 379.501a36.571 36.571 0 1 1-24.283 68.974A475.575 475.575 0 0 1 0 475.429C0 212.846 212.846 0 475.429 0c239.433 0 440.685 177.993 471.405 413.33z m-117.138 95.964l256 402.285C1116.709 960.293 1081.71 1024 1024 1024H512c-57.71 0-92.709-63.707-61.696-112.42l256-402.286a73.143 73.143 0 0 1 123.392 0zM768 548.57L512 950.857h512L768 548.571z m0 109.715a36.571 36.571 0 0 1 36.571 36.571V768a36.571 36.571 0 0 1-73.142 0v-73.143A36.571 36.571 0 0 1 768 658.286z m0 182.857a36.571 36.571 0 1 1 0 73.143 36.571 36.571 0 0 1 0-73.143z" fill="#000000" p-id="12465"></path></svg>